<?xml version="1.0" standalone="no"?>
<!DOCTYPE svg PUBLIC "-//W3C//DTD SVG 20010904//EN"
 "http://www.w3.org/TR/2001/REC-SVG-20010904/DTD/svg10.dtd">
<svg version="1.0" xmlns="http://www.w3.org/2000/svg"
 width="225.000000pt" height="225.000000pt" viewBox="0 0 225.000000 225.000000"
 preserveAspectRatio="xMidYMid meet">

<g transform="translate(0.000000,225.000000) scale(0.100000,-0.100000)"
fill="#FAF8EB" stroke="none">
<path d="M145 2033 c-45 -23 -86 -64 -101 -100 -12 -27 -14 -171 -14 -807 0
-523 3 -784 11 -803 14 -38 56 -81 101 -104 34 -18 62 -19 358 -19 267 0 327
3 358 15 43 19 78 50 98 87 l13 26 -127 4 c-113 3 -132 6 -172 28 -29 17 -53
41 -70 70 l-25 45 -3 513 -3 512 -169 0 -170 0 0 40 0 40 173 1 172 0 30 42
c17 23 50 52 75 65 l44 22 -247 0 -247 0 0 35 0 35 275 0 275 0 0 -35 0 -35
101 0 101 0 -4 109 c-3 104 -4 111 -34 148 -16 21 -50 48 -74 61 -43 21 -52
22 -370 22 -276 -1 -330 -3 -355 -17z m223 -700 l-3 -38 -67 -3 -68 -3 0 41 0
40 71 0 70 0 -3 -37z m53 -602 c36 -36 37 -73 4 -106 -31 -32 -86 -34 -115 -5
-31 31 -27 93 6 119 37 29 70 26 105 -8z"/>
<path d="M742 1619 c-28 -14 -51 -36 -67 -64 l-25 -42 0 -495 0 -495 23 -33
c29 -44 65 -69 113 -80 21 -5 152 -10 290 -10 270 0 264 1 264 -51 0 -16 -7
-19 -44 -19 -96 0 -236 -66 -236 -111 0 -18 10 -19 375 -19 365 0 375 1 375
19 0 44 -140 111 -231 111 -38 0 -39 1 -39 35 l0 35 253 0 c138 0 270 5 291
10 48 11 84 36 114 80 l22 33 0 495 0 495 -25 43 c-16 28 -39 49 -68 63 -43
21 -54 21 -693 21 -641 0 -650 0 -692 -21z m1266 -187 c9 -7 12 -96 10 -413
l-3 -404 -580 0 -580 0 -3 404 c-2 317 1 406 10 413 7 4 265 8 573 8 308 0
566 -4 573 -8z m-954 -904 c13 -19 14 -25 2 -43 -26 -39 -76 -26 -76 19 0 46
48 62 74 24z"/>
</g>
</svg>
