<?xml version="1.0" standalone="no"?>
<!DOCTYPE svg PUBLIC "-//W3C//DTD SVG 20010904//EN"
 "http://www.w3.org/TR/2001/REC-SVG-20010904/DTD/svg10.dtd">
<svg version="1.0" xmlns="http://www.w3.org/2000/svg"
 width="200.000000pt" height="200.000000pt" viewBox="0 0 200.000000 200.000000"
 preserveAspectRatio="xMidYMid meet">

<g transform="translate(0.000000,200.000000) scale(0.100000,-0.100000)"
fill="#FAF8EB" stroke="none">
<path d="M118 1649 c-17 -9 -18 -49 -18 -598 0 -528 2 -589 16 -595 9 -3 170
-6 359 -6 231 0 346 -3 350 -11 13 -20 -5 -57 -61 -129 -30 -40 -53 -78 -50
-86 8 -20 488 -21 504 -1 8 9 -5 31 -50 85 -44 53 -61 81 -62 105 l-1 32 355
3 c320 2 356 4 368 19 9 13 12 146 12 585 0 555 0 568 -20 588 -20 20 -33 20
-852 20 -547 -1 -839 -4 -850 -11z m1670 -516 l-3 -478 -822 -3 -823 -2 0 480
0 480 825 0 825 0 -2 -477z"/>
<path d="M1037 1473 c-4 -3 -7 -19 -7 -34 0 -29 -15 -39 -60 -39 -42 0 -59
-34 -32 -63 22 -25 16 -60 -13 -71 -11 -4 -15 -15 -13 -33 2 -23 9 -29 33 -31
35 -4 50 -26 46 -64 -3 -36 32 -57 58 -34 24 22 58 20 73 -4 16 -25 57 -26 64
-2 16 52 30 67 60 64 45 -5 63 21 41 58 -23 38 -21 51 8 75 34 27 25 65 -15
65 -36 0 -54 23 -47 59 5 23 1 31 -18 41 -21 11 -27 11 -43 -3 -25 -23 -54
-21 -70 3 -12 19 -51 27 -65 13z m143 -128 c18 -18 25 -36 25 -64 0 -45 -17
-69 -62 -88 -47 -19 -98 3 -119 52 -14 33 -13 40 3 73 32 66 102 78 153 27z"/>
<path d="M753 1153 c-7 -2 -13 -18 -13 -33 0 -35 -14 -45 -57 -42 -41 3 -64
-30 -39 -57 22 -24 20 -54 -4 -76 -36 -32 -21 -69 30 -77 22 -3 25 -9 28 -45
4 -50 29 -64 67 -39 33 22 46 20 70 -9 25 -31 65 -25 65 10 0 35 28 58 62 51
24 -5 31 -1 40 19 9 20 8 28 -5 43 -17 19 -23 62 -9 62 4 0 15 7 25 14 14 11
16 19 7 40 -7 20 -16 26 -40 26 -23 0 -31 5 -36 25 -3 14 -4 32 0 40 3 8 -4
21 -16 29 -19 14 -24 13 -49 -5 -31 -21 -61 -15 -73 16 -5 15 -29 18 -53 8z
m132 -127 c35 -35 42 -72 21 -111 -32 -58 -95 -71 -144 -30 -35 30 -45 69 -27
111 16 40 39 53 88 54 27 0 45 -7 62 -24z"/>
</g>
</svg>
