<?xml version="1.0" standalone="no"?>
<!DOCTYPE svg PUBLIC "-//W3C//DTD SVG 20010904//EN"
 "http://www.w3.org/TR/2001/REC-SVG-20010904/DTD/svg10.dtd">
<svg version="1.0" xmlns="http://www.w3.org/2000/svg"
 width="452.000000pt" height="452.000000pt" viewBox="0 0 452.000000 452.000000"
 preserveAspectRatio="xMidYMid meet">

<g transform="translate(0.000000,452.000000) scale(0.100000,-0.100000)"
fill="#FAF8EB" stroke="none">
<path d="M1835 4410 c-82 -27 -150 -82 -210 -168 -67 -98 -93 -113 -213 -124
-80 -7 -110 -14 -169 -43 -128 -63 -188 -158 -208 -329 -6 -56 -19 -116 -28
-133 -10 -19 -48 -53 -91 -82 -114 -77 -167 -154 -188 -271 -13 -76 2 -155 48
-248 48 -96 48 -145 0 -239 -62 -123 -67 -235 -17 -348 24 -55 101 -138 158
-172 56 -32 101 -85 108 -125 3 -18 9 -70 15 -115 16 -135 83 -239 192 -298
29 -15 54 -29 55 -30 2 -1 -103 -229 -232 -508 -128 -279 -236 -516 -240 -527
-9 -27 21 -85 51 -99 17 -7 123 -11 328 -11 l302 0 168 -210 c92 -116 178
-217 189 -225 31 -22 72 -18 101 8 15 14 75 138 161 337 76 173 140 318 144
323 4 4 69 -136 146 -310 76 -175 145 -326 154 -336 25 -30 51 -39 86 -33 29
6 57 36 209 226 l176 219 316 3 316 3 24 28 c13 15 24 41 24 56 0 15 -106 257
-235 537 -129 280 -235 512 -235 515 0 4 24 21 53 37 63 35 126 104 156 168
12 25 26 82 31 127 6 45 12 97 15 115 7 40 52 93 108 125 57 34 134 117 158
172 50 113 45 225 -17 348 -48 94 -48 143 1 244 45 95 59 168 44 247 -21 116
-73 191 -185 267 -92 61 -108 92 -121 220 -17 164 -79 261 -206 324 -60 30
-88 37 -168 44 -120 10 -151 27 -209 117 -87 133 -183 188 -330 188 -79 0 -91
-3 -176 -42 -118 -55 -150 -55 -266 -1 -112 51 -200 60 -293 29z m239 -202
c87 -41 95 -43 186 -43 91 0 99 2 186 43 94 44 135 50 189 29 49 -19 70 -39
113 -103 84 -127 175 -181 326 -194 51 -4 106 -15 123 -23 44 -23 91 -81 97
-119 3 -18 9 -70 15 -116 6 -46 19 -103 30 -127 24 -55 99 -136 156 -169 85
-50 135 -137 120 -208 -4 -17 -22 -63 -41 -102 -64 -134 -64 -235 -1 -368 45
-94 50 -120 36 -171 -16 -61 -43 -93 -114 -138 -122 -77 -171 -161 -190 -324
-20 -171 -60 -212 -223 -226 -81 -7 -109 -14 -167 -43 -79 -39 -108 -66 -168
-157 -77 -117 -162 -138 -294 -74 -142 69 -232 70 -374 5 -152 -70 -225 -52
-315 80 -87 128 -172 176 -334 189 -151 13 -201 64 -214 219 -12 153 -63 245
-181 324 -83 55 -110 87 -124 145 -14 53 -8 78 36 169 63 131 62 237 -4 377
-65 139 -46 216 73 297 130 88 177 161 195 302 6 46 12 98 15 116 6 38 53 96
97 119 17 8 72 19 123 23 145 12 256 77 319 185 31 51 82 100 120 113 56 19
96 13 189 -30z m-546 -2562 c33 -17 71 -58 100 -107 31 -52 114 -126 169 -151
39 -18 67 -22 148 -23 96 0 103 1 185 40 66 32 95 40 137 39 29 0 58 -5 64
-11 9 -9 -45 -141 -206 -510 -120 -274 -225 -513 -235 -532 l-17 -34 -141 175
c-77 96 -148 178 -157 182 -9 3 -131 6 -271 6 -140 0 -254 3 -254 7 0 6 377
827 411 896 21 41 28 43 67 23z m1735 -453 l216 -468 -272 -5 c-150 -3 -272
-7 -273 -8 -7 -20 -281 -349 -286 -344 -11 11 -279 625 -280 642 -1 8 31 90
71 181 l73 167 81 4 c64 3 94 11 137 32 61 30 130 93 162 146 41 69 101 118
144 120 6 0 109 -210 227 -467z"/>
</g>
</svg>
